<?xml version="1.0" standalone="no"?>
<!DOCTYPE svg PUBLIC "-//W3C//DTD SVG 20010904//EN"
 "http://www.w3.org/TR/2001/REC-SVG-20010904/DTD/svg10.dtd">
<svg version="1.0" xmlns="http://www.w3.org/2000/svg"
 width="68.000000pt" height="137.000000pt" viewBox="0 0 68.000000 137.000000"
 preserveAspectRatio="xMidYMid meet">

<g transform="translate(0.000000,137.000000) scale(0.100000,-0.100000)"
fill="#000000" stroke="none">
<path d="M400 1141 c0 -28 11 -52 21 -45 16 9 11 64 -6 64 -8 0 -15 -9 -15
-19z"/>
<path d="M485 1027 c-4 -10 -5 -21 -1 -24 10 -10 18 4 13 24 -4 17 -4 17 -12
0z"/>
<path d="M286 908 c-43 -22 -43 -21 -12 -136 18 -67 18 -133 0 -139 -7 -2 -14
7 -17 19 -7 26 -93 125 -102 117 -12 -12 -6 -87 10 -129 11 -28 18 -75 19
-127 1 -85 19 -131 31 -81 13 50 55 13 80 -71 l7 -24 27 32 c17 20 36 31 53
31 15 0 30 5 33 10 11 18 24 11 31 -16 9 -34 33 -28 61 16 12 19 31 46 42 59
12 13 21 34 21 46 0 11 4 25 9 31 12 13 22 72 12 78 -4 3 -11 29 -15 58 -3 29
-16 74 -28 99 l-23 47 0 -144 c0 -101 -4 -147 -12 -155 -11 -10 -13 -4 -13 32
0 72 -33 171 -82 245 -25 38 -50 79 -56 90 -17 31 -33 34 -76 12z"/>
</g>
</svg>
